<svg xmlns="http://www.w3.org/2000/svg" viewBox="0 0 620 180" role="img" aria-labelledby="logoTitle logoDesc">
  <title id="logoTitle">Wizz Cabs</title>
  <desc id="logoDesc">Wizz Cabs brand logo.</desc>
  <rect width="620" height="180" rx="28" fill="#ffffff"/>
  <g transform="translate(34 35)">
    <path d="M18 4h46c7 0 12 5 12 12v88c0 7-5 12-12 12H18z" fill="#147f78" transform="skewX(-15)"/>
    <path d="M96 4h46c7 0 12 5 12 12v88c0 7-5 12-12 12H96z" fill="#147f78" transform="skewX(-15)"/>
    <path d="M185 4h78c8 0 13 9 8 15l-31 38a16 16 0 0 0-4 10v39c0 10-13 15-19 7L177 19c-4-6 0-15 8-15Z" fill="#f6bc18"/>
  </g>
  <text x="288" y="88" fill="#282727" font-family="Arial, Helvetica, sans-serif" font-size="68" font-weight="800">Wizz</text>
  <text x="292" y="132" fill="#282727" font-family="Arial, Helvetica, sans-serif" font-size="38" font-weight="700" letter-spacing="9">CABS</text>
</svg>
